<svg width="108" height="36" viewBox="0 0 108 36" fill="none" xmlns="http://www.w3.org/2000/svg">
<g clip-path="url(#clip0_2_86)">
<mask id="mask0_2_86" style="mask-type:luminance" maskUnits="userSpaceOnUse" x="3" y="3" width="100" height="31">
<path d="M102.6 3.11798H3.59998V33.082H102.6V3.11798Z" fill="white"/>
</mask>
<g mask="url(#mask0_2_86)">
<path d="M10.0872 4.7174L8.79517 8.70776L23.5346 8.6969L22.2399 4.70654L10.0872 4.7174Z" fill="#8296A4"/>
<path d="M27.4788 4.70111L23.2849 4.70654L27.848 18.7241L31.2384 16.2565L27.4815 4.70111H27.4788Z" fill="#8296A4"/>
<path d="M19.6295 25.9324L23.0253 28.3946L32.8492 21.25L31.5487 17.2599L19.6322 25.9297L19.6295 25.9324Z" fill="#8296A4"/>
<path d="M8.95642 24.3473V24.3527L18.7881 31.4836L22.1785 29.0161L10.2539 20.3572L8.95642 24.3473Z" fill="#8296A4"/>
<path d="M8.47209 9.70114L4.72363 21.2566L8.11943 23.7187L12.6661 9.69843L8.47209 9.70385V9.70114Z" fill="#8296A4"/>
<path d="M13.7165 9.69574L12.419 13.6861L19.9135 13.6807L18.616 9.69574H13.7137H13.7165Z" fill="#8296A4"/>
<path d="M19.6613 9.69031L21.9847 16.8158L25.375 14.3483L23.8604 9.69031H19.6613Z" fill="#8296A4"/>
<path d="M19.6395 19.7582L23.0353 22.2174L26.9983 19.3401V19.3347L25.6981 15.3446L19.6395 19.7582Z" fill="#8296A4"/>
<path d="M14.8141 22.4362L18.7827 25.3192L22.1731 22.8516L16.1037 18.4543L14.8141 22.4362Z" fill="#8296A4"/>
<path d="M12.096 14.6822L10.584 19.3456L13.9798 21.8077L16.2899 14.6822H12.096Z" fill="#8296A4"/>
<path d="M44.8112 11.202H44.8454L45.8887 16.6404H43.8023L44.8112 11.202ZM43.101 8.97894L39.9887 21.1891H42.9642L43.3917 18.8634H46.3162L46.7607 21.1891H49.7362L46.6922 8.97894H43.101Z" fill="#8296A4"/>
<path d="M56.5289 15.7853C57.1901 15.4887 57.7259 15.0385 58.1364 14.4342C58.5582 13.8299 58.7693 13.0661 58.7693 12.1427C58.7693 11.2193 58.5071 10.4611 57.9826 9.8682C57.4581 9.2753 56.6258 8.97894 55.4857 8.97894H50.6632V21.1891H53.5363V16.1786H53.69L56.0841 21.1891H59.3164L56.5289 15.7853ZM55.5542 13.6647C55.3262 13.9724 54.9498 14.1265 54.4253 14.1265H53.5363V10.9969H54.4084C54.9556 10.9969 55.3375 11.128 55.5542 11.3902C55.7823 11.6524 55.8963 12.0343 55.8963 12.536C55.8963 12.9691 55.7823 13.3454 55.5542 13.6647Z" fill="#8296A4"/>
<path d="M66.0752 8.97894L63.3904 13.8015H63.3562V8.97894H60.4832V21.1891H63.3562V17.7691L64.1259 16.589L66.3319 21.1891H69.5639L65.9726 14.246L69.1708 8.97894H66.0752Z" fill="#8296A4"/>
<path d="M75.4676 8.97894V13.545H73.1759V8.97894H70.3029V21.1891H73.1759V15.9733H75.4676V21.1891H78.3405V8.97894H75.4676Z" fill="#8296A4"/>
<path d="M84.0902 11.202H84.1244L85.1677 16.6404H83.0812L84.0902 11.202ZM82.3802 8.97894L79.2677 21.1891H82.2432L82.6707 18.8634H85.5951L86.0395 21.1891H89.0152L85.9712 8.97894H82.3802Z" fill="#8296A4"/>
<path d="M97.2278 8.97894L95.7741 16.9993H95.7397L94.2348 8.97894H90.0281V21.1891H92.5933V11.6809H92.6272L94.5941 21.1891H96.817L98.6813 11.6809H98.7154V21.1891H101.383V8.97894H97.2278Z" fill="#8296A4"/>
</g>
</g>
<defs>
<clipPath id="clip0_2_86">
<rect width="99" height="29.964" fill="white" transform="translate(3.59998 3.11798)"/>
</clipPath>
</defs>
</svg>
