<svg width="108" height="36" viewBox="0 0 108 36" fill="none" xmlns="http://www.w3.org/2000/svg">
<g clip-path="url(#clip0_2_210)">
<mask id="mask0_2_210" style="mask-type:luminance" maskUnits="userSpaceOnUse" x="9" y="5" width="91" height="26">
<path d="M99.6225 5.69043H9.05258V30.2198H99.6225V5.69043Z" fill="white"/>
</mask>
<g mask="url(#mask0_2_210)">
<path d="M50.2047 11.4904H54.5285V13.9122C55.9451 11.7356 57.5754 11.4904 59.9617 11.4904V15.7703H58.875C56.0152 15.7703 54.6464 17.1159 54.6464 19.7815V24.3309H50.2047V11.4904Z" fill="#8296A4"/>
<path d="M74.3875 24.3309H69.9471V23.1068C68.9773 24.232 67.6557 24.7211 66.0263 24.7211C62.932 24.7211 61.1825 22.8864 61.1825 19.5121V11.4904H65.6233V18.5106C65.6233 20.0992 66.4029 21.0283 67.7252 21.0283C69.0474 21.0283 69.9462 20.1227 69.9462 18.583V11.4904H74.3869V24.3309H74.3875Z" fill="#8296A4"/>
<path d="M75.4728 20.3664H79.6318C79.8214 21.2954 80.4592 21.6864 81.9934 21.6864C83.2461 21.6864 83.9783 21.3935 83.9783 20.8554C83.9783 20.4388 83.6237 20.1694 82.6092 19.9498L79.2546 19.1913C77.01 18.6789 75.8758 17.3823 75.8758 15.3023C75.8758 12.562 77.8833 11.1439 81.7815 11.1439C85.6793 11.1439 87.5926 12.5258 87.9245 15.4865H83.7912C83.7211 14.7046 82.9163 14.2261 81.5941 14.2261C80.5315 14.2261 79.8478 14.568 79.8478 15.0827C79.8478 15.5227 80.2954 15.8646 81.1948 16.0865L84.7142 16.9431C87.0289 17.5046 88.1405 18.6796 88.1405 20.5868C88.1405 23.229 85.8484 24.7942 81.9527 24.7942C78.0568 24.7942 75.4796 23.1067 75.4796 20.3664H75.4749H75.4728Z" fill="#8296A4"/>
<path d="M99.9661 15.4842V11.4904H89.0048V15.4865H92.2756V24.3309H96.6937V15.4842H99.9661Z" fill="#8296A4"/>
<path d="M48.9684 15.4842V11.4904H38.008V15.4865H41.2789V24.3309H45.6976V15.4842H48.9684Z" fill="#8296A4"/>
<path d="M9.25603 9.23376L20.1577 5.69043V30.2198C12.3707 26.9489 9.25603 20.6803 9.25603 17.1378V9.23376Z" fill="#8296A4"/>
<path d="M31.0603 9.23376L20.1586 5.69043V30.2198C27.9456 26.9489 31.0603 20.6803 31.0603 17.1378V9.23376Z" fill="url(#paint0_linear_2_210)"/>
<path d="M31.0603 9.23376L20.1586 5.69043V30.2198C27.9456 26.9489 31.0603 20.6803 31.0603 17.1378V9.23376Z" fill="#8296A4"/>
</g>
</g>
<defs>
<linearGradient id="paint0_linear_2_210" x1="19.6982" y1="33.3028" x2="28.6218" y2="1.02788" gradientUnits="userSpaceOnUse">
<stop offset="0.26" stop-color="#48FF91"/>
<stop offset="0.66" stop-color="#0094FF"/>
<stop offset="0.8" stop-color="#0038FF"/>
<stop offset="0.89" stop-color="#0500FF"/>
</linearGradient>
<clipPath id="clip0_2_210">
<rect width="90.9" height="24.8191" fill="white" transform="translate(8.79993 5.69043)"/>
</clipPath>
</defs>
</svg>
