<svg width="161" height="36" viewBox="0 0 161 36" fill="none" xmlns="http://www.w3.org/2000/svg">
<g clip-path="url(#clip0_2_202)">
<path d="M30.4979 17.6005V17.5501C30.4727 10.4194 24.7289 4.59998 17.699 4.59998C10.6691 4.59998 4.90005 10.4194 4.90005 17.6005C4.90005 24.7825 10.643 30.5902 17.699 30.5902C20.9367 30.5924 24.0507 29.3462 26.393 27.1108C26.6237 26.9 26.7612 26.6062 26.7753 26.2941C26.7894 25.9819 26.6789 25.6769 26.4681 25.4462C26.2573 25.2155 25.9636 25.078 25.6514 25.0639C25.3392 25.0498 25.0343 25.1603 24.8036 25.3711L24.7784 25.3963C23.7677 26.357 22.5734 27.1037 21.267 27.5914C19.9606 28.079 18.5692 28.2977 17.1762 28.2343C15.7832 28.1708 14.4174 27.8265 13.1608 27.222C11.9042 26.6176 10.7826 25.7655 9.86355 24.7168L15.3311 15.949V20.0062C15.3311 21.9448 16.0871 22.5757 16.7225 22.7521C17.3579 22.9285 18.311 22.8007 19.3433 21.1636L22.343 16.2928C22.4231 16.1506 22.5158 16.0156 22.6184 15.8887V18.3592C22.6184 20.1727 23.3492 21.6343 24.6083 22.339C25.1895 22.6555 25.8456 22.8086 26.5068 22.7821C27.1681 22.7557 27.8099 22.5506 28.364 22.1887C29.8184 21.2446 30.5996 19.5913 30.4979 17.6005ZM27.1715 20.152C26.9695 20.2911 26.734 20.3737 26.4894 20.3913C26.2447 20.4089 25.9998 20.3607 25.7801 20.2519C25.2761 19.9504 24.9728 19.2709 24.9728 18.3385V15.4828C24.9728 14.1238 24.4436 13.1401 23.5373 12.8899C21.9992 12.4255 20.8418 14.3254 20.4125 15.031L17.699 19.3888V14.023C17.6738 12.7891 17.2697 12.0583 16.5137 11.8306C16.0097 11.6803 15.2537 11.7568 14.5238 12.8656L8.45145 22.5901C7.64364 21.0508 7.22029 19.3389 7.21755 17.6005C7.21755 11.7298 11.9282 6.96788 17.699 6.96788C23.4698 6.96788 28.1804 11.7298 28.1804 17.6005V17.6518C28.2407 18.784 27.8771 19.693 27.1724 20.1448L27.1715 20.152ZM48.3368 13.1662C48.5037 13.2731 48.6432 13.4178 48.744 13.5885C48.8448 13.7592 48.9042 13.9512 48.9173 14.149C48.9155 14.4382 48.8016 14.7154 48.5994 14.9223C48.3973 15.1291 48.1227 15.2494 47.8337 15.2578C47.6965 15.2473 47.561 15.2217 47.4296 15.1813C46.7237 14.6518 45.8675 14.3611 44.9852 14.3515C42.8441 14.3515 41.3834 16.0885 41.3834 18.2548C41.3834 20.4211 42.8702 22.1356 44.9852 22.1356C46.0018 22.1341 46.9778 21.7364 47.7059 21.0268C47.8913 20.8963 48.1109 20.8261 48.3368 20.8252C48.5176 20.8232 48.6957 20.8692 48.8528 20.9587C49.01 21.0481 49.1406 21.1777 49.2312 21.3341C49.3219 21.4906 49.3693 21.6683 49.3687 21.8492C49.3681 22.03 49.3195 22.2074 49.2278 22.3633C49.1405 22.5163 49.0163 22.6468 48.866 22.7413C48.1283 23.3546 47.254 23.7815 46.3167 23.9861C45.3795 24.1906 44.4068 24.1667 43.4807 23.9165C42.5546 23.6662 41.7023 23.1969 40.9956 22.5481C40.2889 21.8994 39.7486 21.0902 39.4203 20.1888C39.0919 19.2874 38.9852 18.3203 39.109 17.369C39.2329 16.4178 39.5837 15.5102 40.1318 14.7229C40.68 13.9357 41.4094 13.2918 42.2587 12.8456C43.1079 12.3993 44.052 12.1639 45.0113 12.1591C46.1975 12.1411 47.3603 12.4921 48.3368 13.1662ZM54.3326 15.6781C53.2023 15.6733 52.1162 16.1168 51.3123 16.9114C50.5085 17.7059 50.0524 18.7868 50.0441 19.9171C50.051 21.0536 50.5038 22.142 51.3049 22.9482C52.1061 23.7544 53.1916 24.2139 54.3281 24.2281C56.5457 24.2281 58.4357 22.2373 58.4357 19.9171C58.4357 17.5987 56.5754 15.6781 54.3326 15.6781ZM54.3074 22.1284C53.2499 22.1284 52.3679 21.1708 52.3679 19.936C52.3679 18.6517 53.2499 17.8696 54.3074 17.8696C55.2911 17.8696 56.1209 18.6769 56.1209 19.936C56.1209 21.196 55.2911 22.1356 54.3074 22.1356V22.1284ZM59.8505 22.9168V16.9696C59.8476 16.8154 59.8755 16.6622 59.9325 16.5189C59.9895 16.3756 60.0745 16.245 60.1825 16.1349C60.2905 16.0249 60.4193 15.9374 60.5615 15.8776C60.7037 15.8179 60.8563 15.7871 61.0106 15.787C61.3209 15.791 61.617 15.9176 61.8344 16.1392C62.0517 16.3607 62.1726 16.6592 62.1707 16.9696V22.9168C62.1728 23.2273 62.052 23.526 61.8347 23.7478C61.6173 23.9695 61.321 24.0962 61.0106 24.1003C60.7017 24.0912 60.4084 23.9629 60.1921 23.7422C59.9758 23.5216 59.8533 23.2257 59.8505 22.9168ZM59.6741 13.5442C59.669 13.3646 59.6997 13.1859 59.7644 13.0184C59.8291 12.8508 59.9265 12.6978 60.0509 12.5683C60.1752 12.4387 60.3241 12.3352 60.4889 12.2637C60.6536 12.1922 60.831 12.1542 61.0106 12.1519C61.1912 12.154 61.3697 12.1917 61.5358 12.2628C61.7019 12.3339 61.8524 12.4371 61.9786 12.5664C62.1048 12.6957 62.2043 12.8486 62.2714 13.0164C62.3384 13.1842 62.3718 13.3635 62.3696 13.5442C62.3696 13.9015 62.2276 14.2442 61.9749 14.4969C61.7223 14.7495 61.3796 14.8915 61.0223 14.8915C60.6649 14.8915 60.3222 14.7495 60.0696 14.4969C59.8169 14.2442 59.6741 13.9015 59.6741 13.5442ZM66.6032 19.693V22.9168C66.6032 23.2245 66.4809 23.5195 66.2634 23.7371C66.0458 23.9547 65.7507 24.0769 65.4431 24.0769C65.1354 24.0769 64.8403 23.9547 64.6227 23.7371C64.4052 23.5195 64.283 23.2245 64.283 22.9168V16.6933C64.283 16.456 64.3772 16.2285 64.545 16.0607C64.7127 15.8929 64.9403 15.7987 65.1776 15.7987C65.4148 15.7987 65.6424 15.8929 65.8101 16.0607C65.9779 16.2285 66.0722 16.456 66.0722 16.6933C66.4028 16.3554 66.8009 16.0911 67.2405 15.9174C67.6801 15.7437 68.1514 15.6646 68.6237 15.6853C70.943 15.6853 71.9753 17.4241 71.9753 19.4149V22.9168C71.9753 23.2245 71.853 23.5195 71.6355 23.7371C71.4179 23.9547 71.1228 24.0769 70.8152 24.0769C70.5075 24.0769 70.2124 23.9547 69.9948 23.7371C69.7773 23.5195 69.6551 23.2245 69.6551 22.9168V19.693C69.6551 18.6841 69.53 17.8372 68.0684 17.8372C67.0369 17.8372 66.6077 18.6931 66.6077 19.693H66.6032ZM79.4786 20.9269C79.3608 20.9272 79.2447 20.8998 79.1395 20.8469C79.0342 20.7941 78.9429 20.7173 78.8729 20.6227L76.1774 17.7004V22.9168C76.1817 23.0718 76.1549 23.2261 76.0985 23.3706C76.0422 23.515 75.9575 23.6467 75.8494 23.7579C75.7412 23.8691 75.6119 23.9574 75.4691 24.0178C75.3263 24.0781 75.1728 24.1092 75.0177 24.1092C74.8626 24.1092 74.7091 24.0781 74.5663 24.0178C74.4235 23.9574 74.2942 23.8691 74.186 23.7579C74.0779 23.6467 73.9932 23.515 73.9369 23.3706C73.8805 23.2261 73.8537 23.0718 73.8581 22.9168V12.5857C73.8938 12.5 73.9531 12.4262 74.0291 12.3728C74.1051 12.3195 74.1946 12.2887 74.2874 12.2842C74.4872 12.3181 74.667 12.4257 74.7914 12.5857L79.1006 17.4241C79.1445 17.4864 79.2007 17.5392 79.2657 17.5791C79.3306 17.619 79.4031 17.6453 79.4786 17.6563C79.6285 17.6272 79.7628 17.5447 79.8566 17.4241L84.164 12.5857C84.2236 12.5045 84.2988 12.4361 84.3852 12.3843C84.4716 12.3326 84.5674 12.2985 84.6671 12.2842C84.7615 12.2818 84.8541 12.3099 84.9314 12.3642C85.0087 12.4184 85.0665 12.4961 85.0964 12.5857V22.9177C85.0992 23.0719 85.0713 23.2251 85.0143 23.3684C84.9573 23.5117 84.8723 23.6422 84.7644 23.7523C84.6563 23.8624 84.5275 23.9499 84.3853 24.0096C84.2431 24.0694 84.0905 24.1002 83.9363 24.1003C83.626 24.0958 83.3301 23.9689 83.113 23.7472C82.8959 23.5255 82.7751 23.2271 82.7771 22.9168V17.7004L80.0788 20.6227C79.9232 20.7962 79.7079 20.9048 79.4759 20.9269H79.4786ZM101.272 17.8282H101.019C99.5585 17.902 99.2822 18.7354 99.2822 19.684V22.9078C99.2819 23.2154 99.1596 23.5103 98.9421 23.7278C98.7246 23.9453 98.4297 24.0676 98.1221 24.0679C97.8145 24.0674 97.5196 23.9449 97.3023 23.7272C97.0849 23.5095 96.9629 23.2145 96.9629 22.9069V16.6942C96.9633 16.4568 97.0578 16.2293 97.2257 16.0615C97.3935 15.8937 97.621 15.7992 97.8584 15.7987C98.0956 15.7992 98.323 15.8937 98.4907 16.0615C98.6584 16.2294 98.7527 16.4569 98.753 16.6942C99.6088 15.8869 100.314 15.7105 101.019 15.6844H101.251C101.534 15.6919 101.803 15.8093 102 16.0116C102.197 16.2139 102.308 16.4853 102.309 16.768C102.308 17.0443 102.2 17.3095 102.008 17.5075C101.815 17.7054 101.553 17.8204 101.277 17.8282H101.272ZM110.216 22.3624C110.322 22.5289 110.384 22.7197 110.393 22.9168C110.38 23.2204 110.254 23.5082 110.039 23.7231C109.824 23.938 109.536 24.0643 109.233 24.0769C108.831 24.0769 108.477 23.7727 108.2 23.4199L105.531 20.3167V22.8907C105.531 23.1982 105.409 23.4932 105.191 23.7107C104.974 23.9282 104.679 24.0503 104.371 24.0503C104.064 24.0503 103.769 23.9282 103.551 23.7107C103.334 23.4932 103.212 23.1982 103.212 22.8907V13.4452C103.211 13.2157 103.279 12.9911 103.406 12.8002C103.533 12.6092 103.714 12.4603 103.927 12.3724C104.139 12.2846 104.372 12.2617 104.597 12.3067C104.822 12.3518 105.029 12.4626 105.191 12.6253C105.408 12.8422 105.531 13.1383 105.531 13.4443V19.3393L108.2 16.3927C108.477 16.0894 108.806 15.7627 109.207 15.7627C109.502 15.7756 109.78 15.9 109.986 16.1106C110.192 16.3212 110.31 16.6022 110.316 16.8967C110.317 17.0836 110.265 17.2669 110.165 17.425L108.05 19.7443L110.216 22.366V22.3624ZM124.226 24.202H123.595C121.832 24.202 120.798 23.4199 120.798 20.674V17.8282H120.195C119.91 17.8282 119.638 17.7152 119.437 17.5142C119.236 17.3132 119.123 17.0406 119.123 16.7563C119.123 16.472 119.236 16.1993 119.437 15.9983C119.638 15.7973 119.91 15.6844 120.195 15.6844H120.789V13.4929C120.783 13.2604 120.848 13.0317 120.975 12.8367C121.101 12.6418 121.284 12.4896 121.499 12.4003C121.641 12.3409 121.794 12.3103 121.948 12.3103C122.258 12.3155 122.553 12.4425 122.77 12.6637C122.987 12.885 123.109 13.1829 123.108 13.4929V15.6781H124.064C124.344 15.6866 124.609 15.8049 124.803 16.0075C124.996 16.2101 125.102 16.4807 125.098 16.7608C125.088 17.0345 124.977 17.2949 124.786 17.491C124.595 17.6871 124.337 17.8048 124.064 17.821H123.108V20.215C123.108 21.8017 123.182 22.1284 123.887 22.1284H124.217C124.491 22.1296 124.753 22.2391 124.946 22.433C125.14 22.6269 125.248 22.8895 125.249 23.1634C125.243 23.4352 125.132 23.6942 124.94 23.8865C124.747 24.0787 124.488 24.1895 124.217 24.1957L124.226 24.202ZM135.436 13.1662C135.603 13.2734 135.742 13.4181 135.843 13.5888C135.943 13.7594 136.002 13.9513 136.016 14.149C136.014 14.4382 135.9 14.7156 135.698 14.9225C135.496 15.1294 135.221 15.2496 134.932 15.2578C134.795 15.2467 134.66 15.2211 134.529 15.1813C133.824 14.6514 132.968 14.3607 132.086 14.3515C129.943 14.3515 128.482 16.0885 128.482 18.2548C128.482 20.4211 129.969 22.1356 132.086 22.1356C133.103 22.1341 134.079 21.7364 134.807 21.0268C134.991 20.8972 135.211 20.827 135.436 20.8252C135.572 20.8239 135.707 20.8497 135.833 20.901C135.959 20.9523 136.074 21.0281 136.17 21.124C136.331 21.2839 136.433 21.4925 136.462 21.717C136.49 21.9415 136.444 22.1692 136.329 22.3642C136.241 22.518 136.115 22.6473 135.964 22.7404C135.227 23.3525 134.353 23.7784 133.417 23.982C132.481 24.1856 131.509 24.1611 130.584 23.9104C129.188 23.5329 127.976 22.6621 127.173 21.4593C126.37 20.2565 126.03 18.8034 126.216 17.3692C126.402 15.9347 127.102 14.6163 128.185 13.6582C129.269 12.7002 130.663 12.1676 132.11 12.1591C133.297 12.1365 134.461 12.4889 135.436 13.1662ZM93.9911 15.7618C93.8731 15.7617 93.7563 15.7853 93.6476 15.8311C93.5388 15.877 93.4404 15.9441 93.358 16.0285C93.2757 16.113 93.211 16.2131 93.168 16.3229C93.1249 16.4328 93.1043 16.5501 93.1073 16.6681L93.0587 16.9471C92.7263 16.5534 92.3138 16.2351 91.8486 16.0135C91.3835 15.7919 90.8765 15.672 90.3614 15.6619C88.0952 15.6619 86.4581 17.5753 86.4581 19.8919C86.4581 22.2094 88.0691 24.202 90.2363 24.202C91.1435 24.202 92.579 23.7979 93.0335 22.9168L93.0848 23.1931C93.0824 23.3117 93.1044 23.4295 93.1495 23.5393C93.1945 23.6491 93.2615 23.7485 93.3465 23.8313C93.4314 23.9141 93.5324 23.9787 93.6433 24.0209C93.7542 24.0631 93.8725 24.0822 93.9911 24.0769C94.1103 24.0771 94.2283 24.0538 94.3385 24.0083C94.4487 23.9628 94.5488 23.896 94.6331 23.8117C94.7174 23.7274 94.7842 23.6273 94.8297 23.5171C94.8752 23.407 94.8985 23.2889 94.8983 23.1697V16.6753C94.8948 16.4352 94.7983 16.2057 94.6291 16.0354C94.4599 15.865 94.2311 15.7669 93.9911 15.7618ZM90.6143 22.1356C89.582 22.1356 88.7747 21.1546 88.7747 19.9432C88.7747 18.7327 89.6054 17.8552 90.6143 17.8552C91.6223 17.8552 92.5303 18.6859 92.5303 19.9432C92.5303 21.2005 91.6475 22.1356 90.6143 22.1356ZM118.683 19.7416C118.631 17.146 116.943 15.6844 114.702 15.6844C111.919 15.6844 110.745 17.7004 110.745 20.0197C110.745 22.9681 112.687 24.2272 115.029 24.2272C115.911 24.2272 116.843 24.1003 117.548 23.5711C117.694 23.4853 117.817 23.3645 117.905 23.2195C117.993 23.0745 118.043 22.9098 118.052 22.7404C118.053 22.491 117.957 22.2509 117.784 22.0718C117.61 21.8927 117.373 21.7889 117.124 21.7828C116.91 21.7846 116.702 21.8458 116.521 21.9592C116.043 22.1633 115.528 22.2659 115.008 22.2607C114.428 22.2607 113.093 22.0285 113.093 20.6488H117.773C118.012 20.6442 118.24 20.5472 118.41 20.3781C118.58 20.2091 118.677 19.981 118.683 19.7416ZM113.087 19.1566C113.087 18.1756 114.122 17.8489 114.75 17.8489C115.38 17.8489 116.414 18.1756 116.439 19.1566H113.087ZM144.679 15.7618C144.561 15.7618 144.444 15.7854 144.336 15.8312C144.227 15.8769 144.129 15.9439 144.046 16.0282C143.964 16.1126 143.899 16.2128 143.857 16.3228C143.814 16.4327 143.794 16.5501 143.797 16.6681L143.747 16.9471C143.415 16.5534 143.003 16.235 142.538 16.0134C142.073 15.7918 141.566 15.6719 141.051 15.6619C138.783 15.6619 137.145 17.5753 137.145 19.8919C137.145 22.2094 138.769 24.202 140.923 24.202C141.831 24.202 143.269 23.7979 143.721 22.9168L143.772 23.1931C143.77 23.3115 143.793 23.4291 143.838 23.5386C143.883 23.6481 143.95 23.7473 144.035 23.8303C144.12 23.9132 144.22 23.9779 144.331 24.0203C144.442 24.0627 144.56 24.082 144.679 24.0769C144.859 24.0768 145.034 24.0236 145.183 23.924C145.332 23.8243 145.449 23.6828 145.518 23.5171C145.563 23.4073 145.586 23.2894 145.586 23.1697V16.6753C145.582 16.4353 145.486 16.2061 145.317 16.0358C145.147 15.8655 144.919 15.7673 144.679 15.7618ZM141.301 22.1356C140.295 22.1356 139.463 21.1546 139.463 19.9432C139.463 18.7327 140.27 17.8552 141.301 17.8552C142.334 17.8552 143.217 18.6859 143.217 19.9432C143.217 21.2005 142.341 22.1356 141.307 22.1356H141.301ZM152.191 15.6781C151.686 15.6689 151.185 15.7624 150.717 15.953C150.249 16.1436 149.825 16.4273 149.471 16.7869C149.471 16.2091 149.093 15.7798 148.59 15.7798C148.47 15.7794 148.352 15.8026 148.242 15.8481C148.131 15.8935 148.031 15.9603 147.947 16.0446C147.862 16.1289 147.795 16.229 147.75 16.3392C147.704 16.4495 147.68 16.5677 147.681 16.687V26.4637C147.681 26.7709 147.804 27.0653 148.021 27.2826C148.238 27.4998 148.533 27.6222 148.84 27.6229C149.147 27.6226 149.442 27.5005 149.659 27.2831C149.877 27.0658 149.999 26.7711 150 26.4637V23.5225C150.628 23.9995 151.637 24.202 152.319 24.2182C154.512 24.2182 156.1 22.2283 156.1 19.909C156.1 17.5888 154.435 15.6781 152.191 15.6781ZM151.913 22.1284C150.881 22.1284 150 21.2014 150 19.9369C150 18.6724 150.881 17.8489 151.913 17.8489C152.946 17.8489 153.753 18.6796 153.753 19.9369C153.753 21.1537 152.948 22.1356 151.913 22.1356V22.1284Z" fill="#8296A4"/>
</g>
<defs>
<clipPath id="clip0_2_202">
<rect width="151.2" height="26.1" fill="white" transform="translate(4.90005 4.59998)"/>
</clipPath>
</defs>
</svg>
