<svg width="134" height="36" viewBox="0 0 134 36" fill="none" xmlns="http://www.w3.org/2000/svg">
<g clip-path="url(#clip0_2_143)">
<path d="M8.25761 23.1714C7.2281 23.1714 6.29757 22.9338 5.48583 22.4388C4.6741 21.9637 4.02075 21.3103 3.54558 20.4788C3.05062 19.6671 2.81304 18.7365 2.79324 17.707V8.46114C2.79324 8.20376 2.87244 7.98597 3.03082 7.82759C3.16941 7.689 3.3872 7.6098 3.64458 7.6098C3.90196 7.6098 4.09994 7.689 4.25833 7.82759C4.39692 7.98597 4.47611 8.20376 4.47611 8.46114V14.1235C4.91168 13.5295 5.48583 13.0544 6.17878 12.6782C6.87172 12.3218 7.66366 12.1436 8.51499 12.1436C9.52471 12.1436 10.4156 12.3812 11.2076 12.8564C11.9995 13.3514 12.6331 14.0047 13.0884 14.8362C13.524 15.6678 13.7616 16.5983 13.7616 17.6476C13.7616 18.6969 13.524 19.6473 13.0488 20.4788C12.5539 21.3103 11.9005 21.9637 11.0888 22.4388C10.2573 22.9338 9.30693 23.1714 8.25761 23.1714ZM8.25761 21.6667C8.99016 21.6667 9.6633 21.4885 10.2573 21.1321C10.8314 20.7758 11.3066 20.3006 11.6431 19.6869C11.9797 19.0929 12.1381 18.4198 12.1381 17.6476C12.1381 16.8953 11.9797 16.2221 11.6431 15.6084C11.3066 14.9946 10.8314 14.5195 10.2573 14.1631C9.6633 13.8265 8.99016 13.6483 8.25761 13.6483C7.54487 13.6483 6.89152 13.8265 6.31737 14.1631C5.72341 14.5195 5.26805 14.9946 4.93148 15.6084C4.5949 16.2221 4.43651 16.8953 4.43651 17.6476C4.43651 18.4198 4.5949 19.0929 4.93148 19.6869C5.26805 20.3006 5.72341 20.7758 6.31737 21.1321C6.89152 21.4885 7.54487 21.6667 8.25761 21.6667ZM21.4731 23.1912C20.5425 23.1912 19.711 22.9932 18.9785 22.5972C18.2459 22.2211 17.652 21.6469 17.2362 20.8946C16.8204 20.1422 16.6027 19.2117 16.6027 18.1228V13.0742C16.6027 12.8366 16.6819 12.6386 16.8402 12.4802C16.9986 12.3218 17.1966 12.2426 17.4342 12.2426C17.6718 12.2426 17.8698 12.3218 18.0281 12.4802C18.1865 12.6386 18.2657 12.8366 18.2657 13.0742V18.1228C18.2657 18.9345 18.4241 19.5879 18.7211 20.0828C19.0181 20.5976 19.4338 20.9738 19.9486 21.2311C20.4634 21.4885 21.0375 21.6271 21.6909 21.6271C22.3046 21.6271 22.8788 21.5083 23.3737 21.2509C23.8687 21.0133 24.2647 20.6768 24.5616 20.261C24.8586 19.8452 24.9972 19.3701 24.9972 18.8355H26.1257C26.1059 19.6671 25.8881 20.4194 25.4724 21.0529C25.0566 21.7063 24.5022 22.2409 23.8093 22.617C23.1163 22.9932 22.3244 23.1912 21.4731 23.1912ZM25.8287 23.0724C25.5714 23.0724 25.3734 22.9932 25.2348 22.8348C25.0764 22.6962 24.9972 22.4784 24.9972 22.2211V13.0742C24.9972 12.8168 25.0764 12.6188 25.2348 12.4604C25.3734 12.3218 25.5714 12.2426 25.8287 12.2426C26.0861 12.2426 26.2841 12.3218 26.4425 12.4604C26.6009 12.6188 26.6801 12.8168 26.6801 13.0742V22.2211C26.6801 22.4784 26.6009 22.6962 26.4425 22.8348C26.2841 22.9932 26.0861 23.0724 25.8287 23.0724ZM35.6661 23.1714C34.6366 23.1714 33.706 22.9338 32.8943 22.4388C32.0826 21.9637 31.4292 21.3103 30.9541 20.4788C30.4591 19.6671 30.2215 18.7365 30.2017 17.707V8.46114C30.2017 8.20376 30.2809 7.98597 30.4393 7.82759C30.5779 7.689 30.7957 7.6098 31.053 7.6098C31.3104 7.6098 31.5084 7.689 31.6668 7.82759C31.8054 7.98597 31.8846 8.20376 31.8846 8.46114V14.1235C32.3201 13.5295 32.8943 13.0544 33.5872 12.6782C34.2802 12.3218 35.0721 12.1436 35.9235 12.1436C36.9332 12.1436 37.8241 12.3812 38.6161 12.8564C39.408 13.3514 40.0415 14.0047 40.4969 14.8362C40.9325 15.6678 41.1701 16.5983 41.1701 17.6476C41.1701 18.6969 40.9325 19.6473 40.4573 20.4788C39.9623 21.3103 39.309 21.9637 38.4973 22.4388C37.6657 22.9338 36.7154 23.1714 35.6661 23.1714ZM35.6661 21.6667C36.3986 21.6667 37.0718 21.4885 37.6657 21.1321C38.2399 20.7758 38.715 20.3006 39.0516 19.6869C39.3882 19.0929 39.5466 18.4198 39.5466 17.6476C39.5466 16.8953 39.3882 16.2221 39.0516 15.6084C38.715 14.9946 38.2399 14.5195 37.6657 14.1631C37.0718 13.8265 36.3986 13.6483 35.6661 13.6483C34.9533 13.6483 34.3 13.8265 33.7258 14.1631C33.1319 14.5195 32.6765 14.9946 32.3399 15.6084C32.0034 16.2221 31.845 16.8953 31.845 17.6476C31.845 18.4198 32.0034 19.0929 32.3399 19.6869C32.6765 20.3006 33.1319 20.7758 33.7258 21.1321C34.3 21.4885 34.9533 21.6667 35.6661 21.6667ZM49.6611 23.1714C48.6316 23.1714 47.7011 22.9338 46.8893 22.4388C46.0776 21.9637 45.4242 21.3103 44.9491 20.4788C44.4541 19.6671 44.2165 18.7365 44.1967 17.707V8.46114C44.1967 8.20376 44.2759 7.98597 44.4343 7.82759C44.5729 7.689 44.7907 7.6098 45.0481 7.6098C45.3055 7.6098 45.5034 7.689 45.6618 7.82759C45.8004 7.98597 45.8796 8.20376 45.8796 8.46114V14.1235C46.3152 13.5295 46.8893 13.0544 47.5823 12.6782C48.2752 12.3218 49.0672 12.1436 49.9185 12.1436C50.9282 12.1436 51.8191 12.3812 52.6111 12.8564C53.403 13.3514 54.0366 14.0047 54.4919 14.8362C54.9275 15.6678 55.1651 16.5983 55.1651 17.6476C55.1651 18.6969 54.9275 19.6473 54.4523 20.4788C53.9574 21.3103 53.304 21.9637 52.4923 22.4388C51.6608 22.9338 50.7104 23.1714 49.6611 23.1714ZM49.6611 21.6667C50.3937 21.6667 51.0668 21.4885 51.6608 21.1321C52.2349 20.7758 52.7101 20.3006 53.0466 19.6869C53.3832 19.0929 53.5416 18.4198 53.5416 17.6476C53.5416 16.8953 53.3832 16.2221 53.0466 15.6084C52.7101 14.9946 52.2349 14.5195 51.6608 14.1631C51.0668 13.8265 50.3937 13.6483 49.6611 13.6483C48.9484 13.6483 48.295 13.8265 47.7209 14.1631C47.1269 14.5195 46.6715 14.9946 46.335 15.6084C45.9984 16.2221 45.84 16.8953 45.84 17.6476C45.84 18.4198 45.9984 19.0929 46.335 19.6869C46.6715 20.3006 47.1269 20.7758 47.7209 21.1321C48.295 21.4885 48.9484 21.6667 49.6611 21.6667ZM60.6072 23.0724C60.0528 23.0724 59.5579 22.914 59.1421 22.617C58.7263 22.32 58.3898 21.9241 58.1522 21.3895C57.9146 20.855 57.7958 20.261 57.7958 19.5681V8.44134C57.7958 8.18396 57.875 7.98597 58.0334 7.82759C58.172 7.689 58.3699 7.6098 58.6273 7.6098C58.8649 7.6098 59.0629 7.689 59.2213 7.82759C59.3599 7.98597 59.4391 8.18396 59.4391 8.44134V19.5681C59.4391 20.1026 59.5578 20.558 59.7756 20.8946C59.9934 21.2509 60.2706 21.4291 60.6072 21.4291H61.1021C61.3199 21.4291 61.4783 21.5083 61.6169 21.6469C61.7555 21.8053 61.8149 22.0033 61.8149 22.2409C61.8149 22.4982 61.7159 22.6962 61.5377 22.8348C61.3397 22.9932 61.0823 23.0724 60.7854 23.0724H60.6072ZM68.1479 23.1714C67.059 23.1714 66.1087 22.9338 65.2771 22.4586C64.4456 22.0033 63.7922 21.3499 63.3171 20.5184C62.8419 19.6869 62.6043 18.7365 62.6043 17.6674C62.6043 16.5785 62.8221 15.6282 63.2775 14.7966C63.7329 13.9849 64.3466 13.3316 65.1385 12.8564C65.9107 12.3812 66.8214 12.1436 67.8509 12.1436C68.8606 12.1436 69.7318 12.3614 70.4841 12.8168C71.2167 13.292 71.7908 13.9057 72.2066 14.7174C72.6026 15.5292 72.8005 16.4399 72.8005 17.4694C72.8005 17.6872 72.7213 17.8654 72.5828 18.004C72.4442 18.1426 72.2462 18.2218 72.0284 18.2218H63.7527V16.8557H72.1274L71.2761 17.4496C71.2959 16.7171 71.1573 16.0637 70.8801 15.4896C70.6029 14.9154 70.2069 14.4601 69.6922 14.1235C69.1774 13.7869 68.5637 13.6285 67.8509 13.6285C67.0986 13.6285 66.4452 13.8067 65.8909 14.1433C65.3167 14.4799 64.901 14.9748 64.604 15.5688C64.307 16.2023 64.1486 16.8953 64.1486 17.6674C64.1486 18.4396 64.3268 19.1325 64.6634 19.7462C65 20.36 65.4751 20.8352 66.0889 21.1717C66.6828 21.5083 67.3758 21.6865 68.1479 21.6865C68.6033 21.6865 69.0586 21.6073 69.5338 21.4489C69.9892 21.2905 70.3653 21.0925 70.6425 20.855C70.8009 20.7362 70.9791 20.6768 71.1969 20.657C71.3949 20.657 71.5532 20.7164 71.6918 20.8352C71.8898 21.0133 71.9888 21.1915 72.0086 21.3895C72.0086 21.5875 71.9096 21.7657 71.7314 21.9043C71.2959 22.2804 70.7415 22.5774 70.0684 22.815C69.3952 23.0526 68.7617 23.1714 68.1479 23.1714ZM89.8544 23.0724C89.597 23.0724 89.3991 22.9932 89.2407 22.8348C89.0823 22.6962 89.0031 22.4982 89.0031 22.2409V16.5587C89.0031 15.648 88.7655 14.9352 88.3102 14.4403C87.8548 13.9453 87.241 13.6879 86.5085 13.6879C85.7363 13.6879 85.1028 13.9453 84.6078 14.4799C84.1129 15.0144 83.8555 15.7074 83.8555 16.5587H82.4102C82.43 15.6678 82.6082 14.8956 82.9844 14.2225C83.3605 13.5691 83.8753 13.0544 84.5286 12.6782C85.182 12.302 85.9145 12.1238 86.7461 12.1238C87.5182 12.1238 88.1914 12.302 88.7853 12.6584C89.3793 13.0148 89.8544 13.5295 90.191 14.1829C90.5276 14.856 90.686 15.648 90.686 16.5587V22.2409C90.686 22.4982 90.6068 22.6962 90.4484 22.8348C90.29 22.9932 90.092 23.0724 89.8544 23.0724ZM76.1935 23.0724C75.9361 23.0724 75.7183 22.9932 75.5798 22.8348C75.4214 22.6962 75.3422 22.4982 75.3422 22.2409V13.094C75.3422 12.8366 75.4214 12.6386 75.5798 12.4802C75.7183 12.3218 75.9361 12.2426 76.1935 12.2426C76.4509 12.2426 76.6489 12.3218 76.8073 12.4802C76.9458 12.6386 77.025 12.8366 77.025 13.094V22.2409C77.025 22.4982 76.9458 22.6962 76.8073 22.8348C76.6489 22.9932 76.4509 23.0724 76.1935 23.0724ZM83.024 23.0724C82.7864 23.0724 82.5884 22.9932 82.43 22.8348C82.2716 22.6962 82.1924 22.4982 82.1924 22.2409V16.5587C82.1924 15.648 81.9548 14.9352 81.4995 14.4403C81.0243 13.9453 80.4304 13.6879 79.6978 13.6879C78.9257 13.6879 78.2723 13.9453 77.7774 14.4601C77.2824 14.9748 77.025 15.648 77.025 16.4795H75.8767C75.8965 15.6282 76.0945 14.856 76.4311 14.2027C76.7676 13.5493 77.2428 13.0544 77.8566 12.6782C78.4703 12.302 79.1633 12.1238 79.9354 12.1238C80.7075 12.1238 81.3807 12.302 81.9746 12.6584C82.5686 13.0148 83.024 13.5295 83.3605 14.1829C83.6971 14.856 83.8555 15.648 83.8555 16.5587V22.2409C83.8555 22.4982 83.7763 22.6962 83.6377 22.8348C83.4793 22.9932 83.2813 23.0724 83.024 23.0724ZM98.7811 23.1714C97.7713 23.1714 96.8804 22.9338 96.0885 22.4388C95.2965 21.9637 94.663 21.3103 94.2076 20.4788C93.7522 19.6473 93.5147 18.7167 93.5147 17.6674C93.5147 16.6181 93.7522 15.6678 94.2472 14.8362C94.7224 14.0047 95.3757 13.3514 96.2073 12.8564C97.0388 12.3812 97.9693 12.1436 99.0186 12.1436C100.048 12.1436 100.979 12.3812 101.81 12.8564C102.622 13.3514 103.275 14.0047 103.77 14.8362C104.245 15.6678 104.483 16.6181 104.503 17.6674L103.83 18.004C103.83 18.9741 103.612 19.865 103.176 20.6372C102.721 21.4093 102.127 22.0231 101.375 22.4784C100.603 22.9338 99.7512 23.1714 98.7811 23.1714ZM99.0186 21.6667C99.7512 21.6667 100.405 21.4885 100.998 21.1321C101.553 20.7956 102.028 20.3204 102.365 19.7067C102.701 19.0929 102.86 18.4198 102.86 17.6674C102.86 16.8953 102.701 16.2221 102.365 15.6084C102.028 15.0144 101.553 14.5393 100.998 14.1829C100.405 13.8265 99.7512 13.6483 99.0186 13.6483C98.2861 13.6483 97.6327 13.8265 97.0586 14.1829C96.4646 14.5393 95.9895 15.0144 95.6529 15.6084C95.3163 16.2221 95.1381 16.8953 95.1381 17.6674C95.1381 18.4198 95.3163 19.0929 95.6529 19.7067C95.9895 20.3204 96.4646 20.7956 97.0586 21.1321C97.6327 21.4885 98.2861 21.6667 99.0186 21.6667ZM103.651 23.0724C103.414 23.0724 103.216 22.9932 103.058 22.8348C102.879 22.6962 102.8 22.4982 102.8 22.2409V18.9741L103.176 17.2516L104.503 17.6674V22.2409C104.503 22.4982 104.424 22.6962 104.265 22.8348C104.107 22.9932 103.909 23.0724 103.651 23.0724ZM108.341 27.7052C108.084 27.7052 107.866 27.626 107.727 27.4874C107.569 27.3291 107.49 27.1113 107.49 26.8539V17.608C107.51 16.5785 107.747 15.648 108.242 14.8164C108.717 14.0047 109.371 13.3514 110.182 12.8564C110.994 12.3812 111.925 12.1436 112.954 12.1436C114.004 12.1436 114.954 12.3812 115.785 12.8564C116.597 13.3514 117.251 14.0047 117.745 14.8362C118.221 15.6678 118.458 16.6181 118.458 17.6674C118.458 18.7167 118.221 19.6473 117.785 20.4788C117.33 21.3103 116.696 21.9637 115.904 22.4388C115.112 22.9338 114.221 23.1714 113.212 23.1714C112.36 23.1714 111.568 22.9932 110.875 22.617C110.182 22.2607 109.608 21.7855 109.173 21.1915V26.8539C109.173 27.1113 109.094 27.3291 108.935 27.4874C108.777 27.626 108.579 27.7052 108.341 27.7052ZM112.954 21.6667C113.687 21.6667 114.36 21.4885 114.954 21.1321C115.528 20.7956 116.003 20.3204 116.34 19.7067C116.676 19.0929 116.835 18.4198 116.835 17.6674C116.835 16.8953 116.676 16.2221 116.34 15.6084C116.003 15.0144 115.528 14.5393 114.954 14.1829C114.36 13.8265 113.687 13.6483 112.954 13.6483C112.242 13.6483 111.588 13.8265 111.014 14.1829C110.42 14.5393 109.965 15.0144 109.628 15.6084C109.292 16.2221 109.133 16.8953 109.133 17.6674C109.133 18.4198 109.292 19.0929 109.628 19.7067C109.965 20.3204 110.42 20.7956 110.994 21.1321C111.568 21.4885 112.222 21.6667 112.954 21.6667ZM125.306 23.1714C124.494 23.1714 123.702 23.0328 122.93 22.7556C122.158 22.4982 121.525 22.1023 121.069 21.6073C120.911 21.4291 120.851 21.2311 120.871 21.0133C120.891 20.7956 121.01 20.5976 121.188 20.459C121.406 20.3006 121.604 20.2412 121.841 20.261C122.039 20.2808 122.237 20.3798 122.376 20.5382C122.673 20.8748 123.069 21.1519 123.584 21.3499C124.098 21.5677 124.672 21.6667 125.286 21.6667C126.197 21.6667 126.87 21.5083 127.306 21.1915C127.721 20.8946 127.939 20.4986 127.959 20.0432C127.959 19.5879 127.741 19.2117 127.325 18.9147C126.89 18.6177 126.157 18.3802 125.128 18.202C123.801 17.9842 122.831 17.608 122.217 17.0735C121.584 16.5389 121.287 15.9054 121.287 15.1728C121.287 14.4997 121.465 13.9453 121.841 13.4899C122.217 13.0346 122.693 12.698 123.306 12.4802C123.9 12.2624 124.554 12.1436 125.247 12.1436C126.138 12.1436 126.89 12.2822 127.543 12.5792C128.197 12.8762 128.711 13.292 129.107 13.7869C129.246 13.9651 129.325 14.1631 129.305 14.3611C129.285 14.5789 129.167 14.7372 128.969 14.856C128.791 14.9748 128.593 15.0144 128.375 14.9748C128.137 14.9352 127.939 14.8362 127.781 14.658C127.444 14.3017 127.068 14.0443 126.652 13.8661C126.237 13.7077 125.742 13.6285 125.207 13.6285C124.514 13.6285 123.96 13.7671 123.544 14.0245C123.128 14.3017 122.91 14.658 122.91 15.0738C122.91 15.3708 122.99 15.6084 123.148 15.8262C123.287 16.0439 123.564 16.2221 123.96 16.3805C124.336 16.5587 124.89 16.6973 125.623 16.8359C126.613 17.0141 127.405 17.2516 127.979 17.5486C128.553 17.8654 128.949 18.2218 129.206 18.6375C129.444 19.0533 129.563 19.5087 129.563 20.0036C129.563 20.6174 129.384 21.1717 129.048 21.6271C128.692 22.1023 128.197 22.4784 127.563 22.7556C126.929 23.0328 126.177 23.1714 125.306 23.1714Z" fill="#8296A4"/>
</g>
<defs>
<clipPath id="clip0_2_143">
<rect width="126.9" height="20.1394" fill="white" transform="translate(2.80002 7.58026)"/>
</clipPath>
</defs>
</svg>
