<svg xmlns="http://www.w3.org/2000/svg">
    <symbol id="logo">
        <path fill-rule="evenodd" clip-rule="evenodd"
            d="M43.198 39.434c0 2.415-.38 4.682-1.142 6.8-.76 2.084-1.853 3.92-3.275 5.508-1.39 1.589-3.078 2.83-5.063 3.723-1.952.893-4.12 1.34-6.502 1.34h-9.989v-4.963h9.99c2.283 0 4.251-.563 5.906-1.688 1.654-1.125 2.911-2.614 3.772-4.467.893-1.886 1.34-3.97 1.34-6.253s-.447-4.368-1.34-6.254c-.86-1.886-2.118-3.375-3.772-4.466-1.655-1.125-3.623-1.688-5.906-1.688H7.215v29.779H2.252V22.063h24.965c2.382 0 4.549.447 6.501 1.34a14.316 14.316 0 0 1 5.063 3.772c1.422 1.588 2.514 3.441 3.275 5.559.761 2.084 1.142 4.318 1.142 6.7Zm39.264 17.37H60.078c-2.415 0-4.599-.446-6.551-1.34a15.231 15.231 0 0 1-5.062-3.722c-1.39-1.588-2.465-3.424-3.226-5.509-.761-2.117-1.142-4.384-1.142-6.8 0-2.381.38-4.615 1.142-6.7.76-2.117 1.836-3.97 3.226-5.558a14.93 14.93 0 0 1 5.062-3.772c1.952-.893 4.136-1.34 6.551-1.34h22.384v4.963H60.078c-2.283 0-4.251.563-5.906 1.688-1.621 1.091-2.878 2.58-3.772 4.466-.893 1.886-1.34 3.97-1.34 6.254 0 2.283.447 4.367 1.34 6.253.894 1.853 2.151 3.342 3.772 4.467 1.655 1.125 3.623 1.688 5.906 1.688h22.384v4.963Zm42.013 0h-4.963V46.88H99.435v-4.964h20.077V27.026h-17.817c-2.25 0-4.318.563-6.204 1.688a12.436 12.436 0 0 0-4.517 4.466c-1.092 1.886-1.638 3.97-1.638 6.254v17.37h-4.963v-17.37c0-2.382.447-4.616 1.34-6.7a17.272 17.272 0 0 1 3.723-5.559 17.031 17.031 0 0 1 5.509-3.772c2.117-.893 4.367-1.34 6.75-1.34h22.78v34.742Z" />
        <path opacity=".4"
            d="M11.857 7.73c0 .611-.15 1.17-.452 1.675A3.364 3.364 0 0 1 10.21 10.6a3.208 3.208 0 0 1-1.675.452H3.19V9.737h5.344c.372 0 .71-.089 1.01-.266.302-.186.541-.43.718-.73.178-.311.266-.648.266-1.011 0-.372-.088-.71-.266-1.01a1.99 1.99 0 0 0-.718-.718 1.955 1.955 0 0 0-1.01-.266H2.446v7.976h-1.33V4.407h7.418c.612 0 1.17.15 1.675.452.505.292.904.69 1.196 1.196.302.505.452 1.063.452 1.675Zm12.138 5.982h-1.794l-2.792-2.659h-4.081V9.737h5.344c.372 0 .709-.089 1.01-.266a2.1 2.1 0 0 0 .718-.73c.177-.311.266-.648.266-1.011 0-.372-.089-.71-.266-1.01a1.99 1.99 0 0 0-.718-.718 1.955 1.955 0 0 0-1.01-.266h-6.088v7.976h-1.33V4.407h7.418c.611 0 1.17.15 1.675.452.505.292.904.69 1.196 1.196.302.505.452 1.063.452 1.675 0 .55-.124 1.059-.372 1.529a3.259 3.259 0 0 1-2.42 1.754l2.792 2.699Zm3.025 0h-1.33V4.407h1.33v9.305Zm12.61-9.305-4.892 9.305h-1.516L28.33 4.407h1.516l4.134 7.87 4.134-7.87h1.515Zm11.077 9.305h-1.329v-2.659h-7.43v-1.33h7.43V5.737h-4.772c-.603 0-1.157.15-1.662.452a3.33 3.33 0 0 0-1.21 1.196 3.282 3.282 0 0 0-.438 1.675v4.653h-1.33V9.059c0-.638.12-1.236.36-1.794.239-.568.571-1.064.996-1.49a4.562 4.562 0 0 1 1.476-1.01 4.603 4.603 0 0 1 1.808-.358h6.101v9.305Zm7.283 0h-1.33V5.736h-4.705v-1.33h10.74v1.33H57.99v7.976Zm15.581 0h-9.624V4.407h9.624v1.329h-8.295v6.646h8.295v1.33Zm-1.13-3.988h-6.5v-1.33h6.5v1.33ZM87.33 66.547h-8.308v7.975h-1.329v-9.305h9.638v1.33Zm-1.142 3.988h-6.5v-1.33h6.5v1.33Zm12.457-5.318-.013 4.653c0 .647-.12 1.254-.359 1.821a4.666 4.666 0 0 1-2.486 2.473 4.507 4.507 0 0 1-1.794.358h-.984c-.638 0-1.24-.12-1.808-.358a4.667 4.667 0 0 1-1.475-.997 4.826 4.826 0 0 1-.997-1.49 4.604 4.604 0 0 1-.36-1.807v-4.653h1.33v4.653c0 .611.146 1.17.439 1.675.301.496.704.895 1.21 1.196a3.184 3.184 0 0 0 1.661.452h.984c.611 0 1.165-.15 1.661-.452.506-.301.904-.7 1.197-1.196a3.209 3.209 0 0 0 .452-1.675v-4.653h1.342Zm3.238 9.305h-1.329v-9.305h.664c.647 0 1.347.124 2.101.373.762.248 1.524.598 2.286 1.05.762.452 1.48.992 2.153 1.621.683.62 1.268 1.312 1.755 2.074v-5.118h1.329v9.305h-1.329a5.61 5.61 0 0 0-.505-2.34 7.993 7.993 0 0 0-1.316-2.073 10.67 10.67 0 0 0-1.834-1.688c-.665-.496-1.343-.9-2.034-1.21-.692-.319-1.338-.522-1.941-.611v7.922Zm22.165-4.652a5.34 5.34 0 0 1-.306 1.821 4.488 4.488 0 0 1-.878 1.476 3.91 3.91 0 0 1-1.355.997 4.139 4.139 0 0 1-1.742.358h-4.692v-1.329h4.692c.612 0 1.139-.15 1.582-.452.443-.301.78-.7 1.01-1.196.24-.505.359-1.064.359-1.675 0-.612-.119-1.17-.359-1.675a2.78 2.78 0 0 0-1.01-1.196c-.443-.302-.97-.452-1.582-.452h-5.357v7.975h-1.329v-9.305h6.686c.638 0 1.219.12 1.742.36.531.239.983.575 1.355 1.01.382.425.674.921.878 1.488.204.559.306 1.157.306 1.795Z" />
    </symbol>
    <symbol id="info">
        <path
            d="M12 3a9 9 0 1 1 0 18 9 9 0 0 1 0-18Zm0 1.125a7.875 7.875 0 1 0 0 15.75 7.875 7.875 0 0 0 0-15.75Zm0 11.813a.844.844 0 1 1 0 1.687.844.844 0 0 1 0-1.688Zm0-9a2.812 2.812 0 0 1 1.857 4.924l-.173.14-.246.184-.098.08c-.062.053-.12.11-.176.168-.381.405-.601.963-.601 1.816a.562.562 0 0 1-1.126 0c0-1.139.33-1.971.906-2.585.124-.132.258-.253.4-.364l.278-.208.133-.112a1.687 1.687 0 1 0-2.841-1.231.563.563 0 0 1-1.126.001A2.812 2.812 0 0 1 12 6.937Z" />
    </symbol>
    <symbol id="done" viewBox="0 0 24 24">
        <path d="M5 14L8.23309 16.4248C8.66178 16.7463 9.26772 16.6728 9.60705 16.2581L18 6"
            stroke="#fff" stroke-width="3" stroke-linecap="round" />
    </symbol>
    <symbol id="wallet">
        <path
            d="M16.3125 4.50098H2.6775C2.51465 4.5325 2.34684 4.52761 2.18609 4.48667C2.02535 4.44573 1.87565 4.36975 1.74771 4.26418C1.61977 4.1586 1.51676 4.02604 1.44606 3.87599C1.37536 3.72594 1.33871 3.5621 1.33875 3.39623V3.37485L15.75 2.81348V1.47473C15.7735 1.27499 15.7513 1.07252 15.6851 0.882609C15.6189 0.692701 15.5104 0.520322 15.3678 0.378488C15.2252 0.236655 15.0522 0.129074 14.862 0.0638715C14.6717 -0.00133121 14.4691 -0.0224517 14.2695 0.00210492L1.47375 2.08223C1.0419 2.24165 0.669196 2.52944 0.405736 2.90693C0.142277 3.28442 0.000688095 3.73352 0 4.19385L0 16.3124C0 16.7599 0.17779 17.1891 0.494257 17.5056C0.810725 17.8221 1.23995 17.9999 1.6875 17.9999H16.3125C16.7601 17.9999 17.1893 17.8221 17.5057 17.5056C17.8222 17.1891 18 16.7599 18 16.3124V6.17611L18.0011 6.12998C18.0011 5.69735 17.8293 5.28243 17.5233 4.97651C17.2174 4.67059 16.8025 4.49873 16.3699 4.49873L16.3102 4.49986L16.3125 4.50098ZM14.625 12.376C14.1773 12.3758 13.748 12.1978 13.4315 11.8812C13.1151 11.5645 12.9374 11.1351 12.9375 10.6874C12.9376 10.2397 13.1156 9.81035 13.4323 9.49388C13.749 9.17741 14.1784 8.99971 14.6261 8.99986C14.8478 8.99993 15.0673 9.04366 15.2721 9.12857C15.4769 9.21347 15.6629 9.33787 15.8196 9.49467C15.9763 9.65148 16.1006 9.83761 16.1853 10.0424C16.2701 10.2473 16.3137 10.4668 16.3136 10.6885C16.3136 10.9102 16.2698 11.1297 16.1849 11.3344C16.1 11.5392 15.9756 11.7253 15.8188 11.882C15.662 12.0387 15.4759 12.1629 15.271 12.2477C15.0662 12.3325 14.8467 12.3761 14.625 12.376Z" />
    </symbol>
    <symbol id="arrow-down">
        <path
            d="M11.7626 14.3817L16.9914 9.14365C17.0781 9.05762 17.147 8.95527 17.194 8.84249C17.2409 8.72972 17.2651 8.60875 17.2651 8.48658C17.2651 8.36441 17.2409 8.24345 17.194 8.13067C17.147 8.0179 17.0781 7.91554 16.9914 7.82951C16.818 7.65714 16.5834 7.56039 16.3389 7.56039C16.0945 7.56039 15.8599 7.65714 15.6865 7.82951L11.0592 12.4105L6.47823 7.82951C6.30483 7.65714 6.07027 7.56039 5.82578 7.56039C5.58129 7.56039 5.34673 7.65714 5.17334 7.82951C5.08589 7.91522 5.01632 8.01743 4.96867 8.13022C4.92101 8.24301 4.89621 8.36414 4.8957 8.48658C4.89621 8.60903 4.92101 8.73015 4.96867 8.84294C5.01632 8.95573 5.08589 9.05794 5.17334 9.14365L10.4022 14.3817C10.4888 14.4757 10.594 14.5506 10.7111 14.6019C10.8281 14.6532 10.9546 14.6797 11.0824 14.6797C11.2102 14.6797 11.3366 14.6532 11.4537 14.6019C11.5707 14.5506 11.6759 14.4757 11.7626 14.3817Z" />
    </symbol>
    <symbol id="cross">
        <path opacity="0.2"
            d="M11.2407 9.50014L18.6389 2.10154C19.1204 1.6203 19.1204 0.842184 18.6389 0.360936C18.1577 -0.120312 17.3796 -0.120312 16.8983 0.360936L9.49989 7.75953L2.10167 0.360936C1.62021 -0.120312 0.842336 -0.120312 0.361098 0.360936C-0.120366 0.842184 -0.120366 1.6203 0.361098 2.10154L7.75932 9.50014L0.361098 16.8987C-0.120366 17.38 -0.120366 18.1581 0.361098 18.6393C0.600928 18.8794 0.916268 19 1.23138 19C1.5465 19 1.86161 18.8794 2.10167 18.6393L9.49989 11.2407L16.8983 18.6393C17.1384 18.8794 17.4535 19 17.7686 19C18.0837 19 18.3988 18.8794 18.6389 18.6393C19.1204 18.1581 19.1204 17.38 18.6389 16.8987L11.2407 9.50014Z" />
    </symbol>
    <symbol id="small-cross">
        <path d="M5.91615 5.00007L9.80995 1.10608C10.0634 0.852787 10.0634 0.443255 9.80995 0.189966C9.55667 -0.0633221 9.14714 -0.0633221 8.89386 0.189966L4.99994 4.08396L1.10614 0.189966C0.85274 -0.0633221 0.443335 -0.0633221 0.190051 0.189966C-0.0633505 0.443255 -0.0633505 0.852787 0.190051 1.10608L4.08385 5.00007L0.190051 8.89407C-0.0633505 9.14736 -0.0633505 9.55689 0.190051 9.81018C0.316278 9.93653 0.482246 10 0.648097 10C0.813947 10 0.979797 9.93653 1.10614 9.81018L4.99994 5.91618L8.89386 9.81018C9.0202 9.93653 9.18605 10 9.3519 10C9.51775 10 9.6836 9.93653 9.80995 9.81018C10.0634 9.55689 10.0634 9.14736 9.80995 8.89407L5.91615 5.00007Z" />
    </symbol>
</svg>